<?xml version="1.0"?>
<svg xmlns="http://www.w3.org/2000/svg" width="512px" height="512px" viewBox="0 0 128 128"><g><g><path d="M121.5,4.75H6.5A1.75,1.75,0,0,0,4.75,6.5V91.03A1.75,1.75,0,0,0,6.5,92.78H56.476L53.9,107.944A13.759,13.759,0,0,0,42.35,121.5a1.75,1.75,0,0,0,1.75,1.75h71.4a7.759,7.759,0,0,0,7.75-7.75V6.5A1.75,1.75,0,0,0,121.5,4.75ZM8.25,8.25h111.5V47.277a7.676,7.676,0,0,0-2.5-1.07V12.5a1.75,1.75,0,0,0-1.75-1.75H12.5a1.75,1.75,0,0,0-1.75,1.75V79.03a1.75,1.75,0,0,0,1.75,1.75H74.555v8.5H8.25ZM82.305,46a7.724,7.724,0,0,0-5.6,2.4H27.8a1.75,1.75,0,0,0,0,3.5H74.787a7.727,7.727,0,0,0-.232,1.849v3.423H27.8a1.75,1.75,0,0,0,0,3.5H74.555v5.273H27.8a1.75,1.75,0,0,0,0,3.5H74.555V77.28H14.25V14.25h99.5V46Zm-8.2,61.936L71.524,92.78h3.031v15.226C74.406,107.978,74.255,107.96,74.106,107.936ZM67.973,92.78l2.549,14.97H57.479l2.548-14.97ZM56.1,111.25H71.9a10.276,10.276,0,0,1,2.655.351v3.9a7.707,7.707,0,0,0,1.276,4.25H46A10.267,10.267,0,0,1,56.1,111.25Zm63.65,4.25a4.255,4.255,0,0,1-4.25,4.25H82.305a4.255,4.255,0,0,1-4.25-4.25V53.75a4.255,4.255,0,0,1,4.25-4.25H115.5a4.255,4.255,0,0,1,4.25,4.25Z" data-original="#000000" class="active-path" data-old_color="#000000" fill="#FFFFFF"/><path d="M18.5,20.93a1.749,1.749,0,0,0-1.75,1.75v9a1.75,1.75,0,0,0,3.5,0v-9A1.749,1.749,0,0,0,18.5,20.93Z" data-original="#000000" class="active-path" data-old_color="#000000" fill="#FFFFFF"/><path d="M27.8,25.583h72.4a1.75,1.75,0,0,0,0-3.5H27.8a1.75,1.75,0,0,0,0,3.5Z" data-original="#000000" class="active-path" data-old_color="#000000" fill="#FFFFFF"/><path d="M100.2,30.856H27.8a1.75,1.75,0,0,0,0,3.5h72.4a1.75,1.75,0,0,0,0-3.5Z" data-original="#000000" class="active-path" data-old_color="#000000" fill="#FFFFFF"/><path d="M100.2,39.628H27.8a1.75,1.75,0,1,0,0,3.5h72.4a1.75,1.75,0,0,0,0-3.5Z" data-original="#000000" class="active-path" data-old_color="#000000" fill="#FFFFFF"/><path d="M92.9,55.5h12a1.75,1.75,0,0,0,0-3.5h-12a1.75,1.75,0,1,0,0,3.5Z" data-original="#000000" class="active-path" data-old_color="#000000" fill="#FFFFFF"/><path d="M101.9,113.75h-6a1.75,1.75,0,1,0,0,3.5h6a1.75,1.75,0,0,0,0-3.5Z" data-original="#000000" class="active-path" data-old_color="#000000" fill="#FFFFFF"/><path d="M98.9,72.875a11.75,11.75,0,1,0,11.75,11.75A11.764,11.764,0,0,0,98.9,72.875Zm0,20a8.25,8.25,0,1,1,8.25-8.25A8.26,8.26,0,0,1,98.9,92.875Z" data-original="#000000" class="active-path" data-old_color="#000000" fill="#FFFFFF"/><path d="M101.853,80.223,96.76,85.315l-.808-.807a1.749,1.749,0,0,0-2.474,2.474l2.044,2.045a1.749,1.749,0,0,0,2.475,0l6.33-6.33a1.749,1.749,0,0,0-2.474-2.474Z" data-original="#000000" class="active-path" data-old_color="#000000" fill="#FFFFFF"/></g></g> </svg>
